<?xml version="1.0" encoding="utf-8"?>
<!-- Generator: Adobe Illustrator 19.0.0, SVG Export Plug-In . SVG Version: 6.00 Build 0)  -->
<svg version="1.1" id="Layer_1" xmlns="http://www.w3.org/2000/svg" xmlns:xlink="http://www.w3.org/1999/xlink" x="0px" y="0px"
	 viewBox="0 0 434.4 300" style="enable-background:new 0 0 434.4 300;" xml:space="preserve">
<style type="text/css">
	.st0{fill:#FFFFFF;}
</style>
<g id="XMLID_1_">
	<g id="XMLID_68_">
		<path id="XMLID_74_" class="st0" d="M99.5,148.2L36.4,244H1.1L82,121.9L2.2,1.3h35.4l62,94l62-94h35.4L117,121.9L197.9,244h-35.4
			L99.5,148.2z"/>
		<path id="XMLID_72_" class="st0" d="M246.2,218.3c-1.1,9.4-3.3,18.6-6.6,27.7c-3.3,9.1-7.8,18.2-13.5,27.3
			c-5.7,9.1-13.2,18.5-22.4,28.2L180.4,283c12.6-14.3,21.5-28.5,26.6-42.5c5.1-14,7.7-29.5,7.7-46.5V1.3h33.5v187.3
			C248,199.1,247.3,209,246.2,218.3z"/>
		<path id="XMLID_69_" class="st0" d="M287.2,244h-33.5V1.3h63.1c13.1,0,25.3,1.5,36.6,4.4c11.3,2.9,21.2,7.2,29.7,12.9
			c8.5,5.7,15.2,12.9,20,21.5c4.9,8.6,7.3,18.5,7.3,29.7c0,16.8-5.4,31.3-16.2,43.7c-10.8,12.4-25.9,21.4-45.4,27L434.4,244h-41.2
			l-79.1-97.7c-1.2,0-3,0.1-5.5,0.2c-2.4,0.1-5,0.2-7.7,0.2c-2.7,0-5.3,0-7.8,0c-2.6,0-4.6,0-6,0V244z M376.9,70.5
			c0-7.5-1.6-14-4.9-19.5c-3.3-5.5-7.7-9.8-13.3-13.1c-5.6-3.3-12-5.7-19.3-7.3c-7.3-1.6-14.9-2.4-23-2.4h-29.2v91.5H304
			c10.2,0,19.7-1,28.6-2.9c8.9-1.9,16.6-4.9,23.1-8.9s11.7-9.1,15.5-15.3C375,86.4,376.9,79,376.9,70.5z"/>
	</g>
</g>
</svg>
